<svg width="32" height="32" viewBox="0 0 32 32" xmlns="http://www.w3.org/2000/svg">
  <defs>
    <linearGradient id="iconGradient" x1="0%" y1="0%" x2="100%" y2="100%">
      <stop offset="0%" style="stop-color:#667eea;stop-opacity:1" />
      <stop offset="100%" style="stop-color:#764ba2;stop-opacity:1" />
    </linearGradient>
  </defs>
  
  <!-- Background circle -->
  <circle cx="16" cy="16" r="15" fill="url(#iconGradient)" stroke="#fff" stroke-width="2"/>
  
  <!-- Guitar silhouette -->
  <path d="M8 10 Q12 8 16 10 Q20 8 24 10 Q26 12 26 16 Q26 20 24 22 Q20 24 16 22 Q12 24 8 22 Q6 20 6 16 Q6 12 8 10 Z" 
        fill="#fff" opacity="0.9"/>
  
  <!-- Strings -->
  <line x1="8" y1="13" x2="24" y2="13" stroke="#667eea" stroke-width="0.5"/>
  <line x1="8" y1="15" x2="24" y2="15" stroke="#667eea" stroke-width="0.5"/>
  <line x1="8" y1="17" x2="24" y2="17" stroke="#667eea" stroke-width="0.5"/>
  <line x1="8" y1="19" x2="24" y2="19" stroke="#667eea" stroke-width="0.5"/>
  
  <!-- Sound hole -->
  <circle cx="16" cy="16" r="3" fill="#667eea" opacity="0.6"/>
</svg>
